<svg xmlns="http://www.w3.org/2000/svg" viewBox="0 0 64 64">
  <rect width="64" height="64" rx="12" fill="#0057ff"/>
  <!-- Bildmarke Vorsorgewaage (48er Raster), weiß, zentriert -->
  <g transform="translate(8 5.5)" fill="white" stroke="white">
    <rect x="15" y="42" width="18" height="4" rx="2" stroke="none"/>
    <rect x="22" y="10" width="4" height="34" rx="2" stroke="none"/>
    <rect x="8" y="9.5" width="32" height="4" rx="2" stroke="none" transform="rotate(10 24 11.5)"/>
    <circle cx="24" cy="11.5" r="3.5" stroke="none"/>
    <path d="M8.2 8.7 L2.5 24 M8.2 8.7 L13.9 24 M39.8 14.3 L34.1 30 M39.8 14.3 L45.5 30" fill="none" stroke-width="1.8" stroke-linecap="round"/>
    <path d="M1.5 24 H14.9 A6.7 5 0 0 1 1.5 24 Z" stroke="none" opacity="0.7"/>
    <path d="M33.1 30 H46.5 A6.7 5 0 0 1 33.1 30 Z" stroke="none"/>
  </g>
</svg>
