<?xml version="1.0" encoding="UTF-8"?>
<svg viewBox="0 0 380.48 45.05" xmlns="http://www.w3.org/2000/svg" xmlns:xlink="http://www.w3.org/1999/xlink">
  <defs>
    <linearGradient id="g1" x1="23.54" y1="26.83" x2="58.85" y2="26.83" gradientUnits="userSpaceOnUse">
      <stop offset="0" stop-color="#fff"/>
      <stop offset=".1" stop-color="#f9fbff"/>
      <stop offset=".22" stop-color="#eaf1ff"/>
      <stop offset=".36" stop-color="#d0e0ff"/>
      <stop offset=".51" stop-color="#acc8ff"/>
      <stop offset=".66" stop-color="#7faaff"/>
      <stop offset=".82" stop-color="#4785ff"/>
      <stop offset="1" stop-color="#0057ff"/>
    </linearGradient>
  </defs>
  <!-- Brand mark -->
  <polygon fill="url(#g1)" points="58.85 9.18 23.54 44.49 58.85 44.49 58.85 9.18"/>
  <rect fill="#0057ff" x="11.64" y="15.75" width="49.93" height="12.98" transform="translate(-5.01 32.4) rotate(-45)"/>
  <rect fill="#0057ff" x="9.87" y="11.48" width="12.98" height="33.29" transform="translate(-15.09 19.81) rotate(-45)"/>
  <!-- Wordmark (dark) -->
  <path fill="#1a1a2e" d="M92.13,9.2h14.1c7.93,0,12.91,4.24,12.91,10.99c0,4.93-2.81,8.48-7.44,10.07l8.01,14.23h-6.22l-7.39-13.36h-8.46v13.36h-5.52V9.2ZM106.01,26.65c4.78,0,7.69-2.49,7.69-6.47s-2.93-6.44-7.71-6.44h-8.33v12.91h8.36Z"/>
  <path fill="#1a1a2e" d="M121.85,32.03c0-7.63,5.07-13.12,12.24-13.12s12.26,5.35,12.26,13.07v1.35h-19.33c.17,4.5,2.81,7.55,7.41,7.55c3.43,0,5.72-1.63,6.47-4h5.05c-.97,4.83-5.65,8.17-11.59,8.17c-7.78,0-12.51-5.47-12.51-13.02ZM141.22,29.54c-.42-3.98-3.11-6.46-7.09-6.46s-6.62,2.49-7.06,6.46h14.15Z"/>
  <path fill="#1a1a2e" d="M155.65,44.49h-5.25v-25.01h5.15v3.77c1.79-2.84,4.48-4.26,7.93-4.26c5.4,0,9.5,3.39,9.5,9.92v15.58h-5.25v-14.97c0-4-2.11-6.06-5.75-6.06s-6.34,1.99-6.34,6.63v14.4Z"/>
  <path fill="#1a1a2e" d="M190.5,23.6h-5.32v14.28c0,1.85.67,2.49,2.76,2.49h2.56v4.12h-3.31c-4.92,0-7.29-1.94-7.29-5.97v-14.92h-4.63v-4.12h4.63v-6.82h5.27v6.82h5.32v4.12Z"/>
  <path fill="#1a1a2e" d="M191.97,32.03c0-7.63,5.07-13.12,12.24-13.12s12.26,5.35,12.26,13.07v1.35h-19.33c.17,4.5,2.81,7.55,7.41,7.55c3.43,0,5.72-1.63,6.47-4h5.05c-.97,4.83-5.65,8.17-11.59,8.17c-7.79,0-12.51-5.47-12.51-13.02ZM211.35,29.54c-.42-3.98-3.11-6.46-7.09-6.46s-6.62,2.49-7.06,6.46h14.15Z"/>
  <path fill="#1a1a2e" d="M225.77,44.49h-5.25v-25.01h5.15v3.77c1.79-2.84,4.48-4.26,7.93-4.26c5.4,0,9.5,3.39,9.5,9.92v15.58h-5.25v-14.97c0-4-2.11-6.06-5.75-6.06s-6.34,1.99-6.34,6.63v14.4Z"/>
  <path fill="#1a1a2e" d="M247.04,32.03c0-7.7,5.05-13.12,12.54-13.12c6.27,0,10.84,3.81,11.49,9.12h-5.22c-.55-2.82-2.69-4.81-6.24-4.81c-4.53,0-7.24,3.46-7.24,8.81s2.69,8.71,7.24,8.71c3.61,0,5.47-1.92,6.17-4.83h5.3c-.6,5.21-5.22,9.14-11.49,9.14c-7.51,0-12.54-5.38-12.54-13.02Z"/>
  <path fill="#1a1a2e" d="M280.25,44.49h-5.25V9.2h5.25v13.88c1.79-2.72,4.43-4.1,7.83-4.1c5.4,0,9.5,3.39,9.5,9.92v15.58h-5.25v-14.97c0-4-2.11-6.06-5.75-6.06s-6.34,1.99-6.34,6.63v14.4Z"/>
  <path fill="#1a1a2e" d="M301.52,32.03c0-7.63,5.07-13.12,12.24-13.12s12.26,5.35,12.26,13.07v1.35h-19.33c.17,4.5,2.81,7.55,7.41,7.55c3.43,0,5.72-1.63,6.47-4h5.05c-.97,4.83-5.65,8.17-11.59,8.17c-7.79,0-12.51-5.47-12.51-13.02ZM320.9,29.54c-.42-3.98-3.11-6.46-7.09-6.46s-6.62,2.49-7.06,6.46h14.15Z"/>
  <path fill="#1a1a2e" d="M328.74,32.03c0-7.7,5.05-13.12,12.54-13.12c6.27,0,10.84,3.81,11.49,9.12h-5.22c-.55-2.82-2.69-4.81-6.24-4.81c-4.53,0-7.24,3.46-7.24,8.81s2.69,8.71,7.24,8.71c3.61,0,5.47-1.92,6.17-4.83h5.3c-.6,5.21-5.22,9.14-11.49,9.14c-7.51,0-12.54-5.38-12.54-13.02Z"/>
  <path fill="#1a1a2e" d="M356.71,9.2h5.25v20.96h.07l11.19-10.68h6.52l-11.12,10.75l11.86,14.26h-6.44l-9.43-11.25l-2.66,2.46v8.79h-5.25V9.2Z"/>
</svg>
